<svg width="129" height="44" viewBox="0 0 129 44" fill="none" xmlns="http://www.w3.org/2000/svg">
<path d="M28.5 31.0389L29.6892 30.0377C30.4805 29.3718 31.3398 28.5154 32.267 27.4686C33.1943 26.4217 34.0544 25.259 34.8472 23.9806C35.6385 22.7051 36.0341 21.4389 36.0341 20.1817C36.0341 18.1246 35.3 16.3722 33.8318 14.9246C32.3636 13.477 30.5864 12.7531 28.5 12.7531C26.4136 12.7531 24.6364 13.477 23.1682 14.9246C21.7 16.3722 20.9659 18.1246 20.9659 20.1817C20.9659 21.4389 21.3623 22.7059 22.1551 23.9829C22.948 25.2598 23.8072 26.421 24.733 27.4663C25.6602 28.5147 26.5203 29.3726 27.3131 30.04L28.5 31.0389ZM28.5 21.896C27.8432 21.896 27.2922 21.6766 26.8471 21.2377C26.402 20.7989 26.1803 20.2564 26.1818 19.6103C26.1818 18.9627 26.4044 18.4194 26.8495 17.9806C27.2945 17.5417 27.8447 17.323 28.5 17.3246C29.1568 17.3246 29.7078 17.544 30.1529 17.9829C30.598 18.4217 30.8197 18.9642 30.8182 19.6103C30.8182 20.2579 30.5956 20.8011 30.1505 21.24C29.7055 21.6789 29.1553 21.8975 28.5 21.896ZM19.2273 37.896C14.7068 37.896 10.8718 36.3432 7.72214 33.2377C4.5725 30.1322 2.99846 26.3516 3 21.896C3 17.4389 4.57482 13.6575 7.72446 10.552C10.8741 7.44648 14.7084 5.89448 19.2273 5.896H37.7727C42.2932 5.896 46.1282 7.44876 49.2779 10.5543C52.4275 13.6598 54.0015 17.4404 54 21.896C54 26.3531 52.4252 30.1345 49.2755 33.24C46.1259 36.3455 42.2916 37.8975 37.7727 37.896H19.2273Z" fill="#105DFB"/>
<path d="M60 15.992C60.792 17.936 62.544 19.04 65.16 19.04C67.896 19.04 69.96 17.504 69.96 15.368C69.96 13.352 68.808 12.248 65.904 11.792C63.984 11.504 63.384 11.216 63.384 10.544C63.384 9.968 64.056 9.56 64.992 9.56C65.928 9.56 66.624 9.992 66.912 10.856L69.24 9.584C68.544 8.072 67.296 7.184 64.92 7.184C62.616 7.184 60.576 8.552 60.576 10.52C60.576 12.44 61.992 13.544 64.464 13.928C66.504 14.216 67.104 14.624 67.104 15.416C67.104 16.064 66.432 16.52 65.256 16.52C63.888 16.52 62.928 15.92 62.4 14.72L60 15.992Z" fill="#105DFB"/>
<path d="M71.7741 7.424V18.8H74.8461V7.424H71.7741ZM71.6781 5.72H74.9661V2.48H71.6781V5.72Z" fill="#105DFB"/>
<path d="M77.2461 20.36C78.0381 22.64 79.8621 23.792 82.6461 23.792C86.4861 23.792 88.5261 21.44 88.5261 17.768V7.424H85.4781V8.768C84.7341 7.712 83.6061 7.184 82.0461 7.184C79.0941 7.184 76.6461 9.488 76.6461 13.088C76.6461 16.424 78.9021 18.728 81.8301 18.728C83.5821 18.728 84.7821 18.128 85.4781 16.928V18.008C85.4781 20.024 84.5661 21.224 82.7181 21.224C81.3021 21.224 80.3181 20.48 79.9581 19.16L77.2461 20.36ZM85.5741 13.016C85.5741 14.84 84.3261 16.16 82.6701 16.16C80.9661 16.16 79.7181 14.984 79.7181 13.088C79.7181 11.072 80.9661 9.824 82.6221 9.824C84.3261 9.824 85.5741 11.096 85.5741 13.016Z" fill="#105DFB"/>
<path d="M94.0423 18.8V12.896C94.0423 10.952 95.1463 9.728 96.6103 9.728C98.0743 9.728 98.9383 10.664 98.9383 12.224V18.8H101.986V11.504C101.986 8.912 100.402 7.184 97.8103 7.184C96.1543 7.184 94.7383 8 94.0423 9.464V2H90.9703V18.8H94.0423Z" fill="#105DFB"/>
<path d="M105.521 14.96C105.521 17.456 107.033 19.04 109.793 19.04C112.193 19.04 113.729 17.648 114.041 15.272L111.209 14.744C111.113 15.8 110.657 16.328 109.865 16.328C109.097 16.328 108.569 15.824 108.569 14.96V9.944H112.841V7.424H108.569V3.68H105.521V7.424H103.169V9.944H105.521V14.96Z" fill="#105DFB"/>
<path d="M60 33.992C60.792 35.936 62.544 37.04 65.16 37.04C67.896 37.04 69.96 35.504 69.96 33.368C69.96 31.352 68.808 30.248 65.904 29.792C63.984 29.504 63.384 29.216 63.384 28.544C63.384 27.968 64.056 27.56 64.992 27.56C65.928 27.56 66.624 27.992 66.912 28.856L69.24 27.584C68.544 26.072 67.296 25.184 64.92 25.184C62.616 25.184 60.576 26.552 60.576 28.52C60.576 30.44 61.992 31.544 64.464 31.928C66.504 32.216 67.104 32.624 67.104 33.416C67.104 34.064 66.432 34.52 65.256 34.52C63.888 34.52 62.928 33.92 62.4 32.72L60 33.992Z" fill="#105DFB"/>
<path d="M79.6974 32.456C79.3374 33.752 78.4494 34.4 77.0574 34.4C75.4254 34.4 74.0814 33.416 74.0574 31.688H81.7854C81.8814 31.256 81.9294 30.8 81.9294 30.296C81.9294 27.176 79.7934 25.184 76.6494 25.184C73.2894 25.184 70.9854 27.8 70.9854 31.04C70.9854 34.64 73.4814 37.04 77.0094 37.04C79.6734 37.04 81.5214 35.696 82.3134 33.488L79.6974 32.456ZM74.0574 29.648C74.3454 28.4 75.4014 27.656 76.6494 27.656C78.0174 27.656 78.9534 28.4 78.9534 29.552L78.9294 29.648H74.0574Z" fill="#105DFB"/>
<path d="M92.0378 32.456C91.6777 33.752 90.7897 34.4 89.3978 34.4C87.7658 34.4 86.4218 33.416 86.3978 31.688H94.1258C94.2218 31.256 94.2698 30.8 94.2698 30.296C94.2698 27.176 92.1338 25.184 88.9898 25.184C85.6298 25.184 83.3258 27.8 83.3258 31.04C83.3258 34.64 85.8218 37.04 89.3498 37.04C92.0138 37.04 93.8618 35.696 94.6538 33.488L92.0378 32.456ZM86.3978 29.648C86.6858 28.4 87.7418 27.656 88.9898 27.656C90.3578 27.656 91.2938 28.4 91.2938 29.552L91.2698 29.648H86.3978Z" fill="#105DFB"/>
<path d="M96.3141 25.424V36.8H99.3861V25.424H96.3141ZM96.2181 23.72H99.5061V20.48H96.2181V23.72Z" fill="#105DFB"/>
<path d="M104.906 36.8V30.512C104.906 28.712 105.89 27.68 107.258 27.68C108.578 27.68 109.394 28.64 109.394 30.2V36.8H112.466V29.36C112.466 26.744 110.834 25.184 108.362 25.184C106.922 25.184 105.65 25.76 104.906 26.912V25.424H101.834V36.8H104.906Z" fill="#105DFB"/>
<path d="M114.876 38.36C115.668 40.64 117.492 41.792 120.276 41.792C124.116 41.792 126.156 39.44 126.156 35.768V25.424H123.108V26.768C122.364 25.712 121.236 25.184 119.676 25.184C116.724 25.184 114.276 27.488 114.276 31.088C114.276 34.424 116.532 36.728 119.46 36.728C121.212 36.728 122.412 36.128 123.108 34.928V36.008C123.108 38.024 122.196 39.224 120.348 39.224C118.932 39.224 117.948 38.48 117.588 37.16L114.876 38.36ZM123.204 31.016C123.204 32.84 121.956 34.16 120.3 34.16C118.596 34.16 117.348 32.984 117.348 31.088C117.348 29.072 118.596 27.824 120.252 27.824C121.956 27.824 123.204 29.096 123.204 31.016Z" fill="#105DFB"/>
</svg>
